# xmcd
#
# Track frame offsets: 
#        183
#        16568
#        30870
#        45933
#        61333
#        72568
#        86263
#        102773
#        116360
#        130720
#        146243
#        161163
#        172648
#        183208
#        200645
#        213778
#
# Disc length: 3019 seconds
#
# Revision: 2
# Processed by: cddbd v1.5.2PL0 Copyright (c) Steve Scherf et al.
# Submitted via: ExactAudioCopyFreeDBPlugin 1.0
#
DISCID=c20bc910
DTITLE=Various Artist - Southern Soul Belles
DYEAR=1990
DGENRE=Soul
TTITLE0=Barbara West - The Love of My Man
TTITLE1=Betty Lavette - I'm in Love
TTITLE2=Tommie Young - That's All a Part of Loving Him
TTITLE3=Peggy Scott - Every Little Bit Hurts
TTITLE4=Shay Holiday - Fight Fire with Fire
TTITLE5=Tommie Young - Easier to Say (Than Do)
TTITLE6=Doris Allen - Do You Still Feel the Same
TTITLE7=Betty Lavette - A Shell of a Woman
TTITLE8=Barbara West - Nearer to You
TTITLE9=Barbara West - Anyone But You
TTITLE10=The Ad-Libs - Giving Up
TTITLE11=Carolyn Montgomery - Gonna Make a Change
TTITLE12=Doris Allen - Hanging Heavy on My Mind
TTITLE13=Tommie Young - You Brought it All on Yourself
TTITLE14=Betty Lavette - Let Me Down Easy
TTITLE15=Barbara West - Give Me Back the Man I Love
EXTD=
EXTT0=
EXTT1=
EXTT2=
EXTT3=
EXTT4=
EXTT5=
EXTT6=
EXTT7=
EXTT8=
EXTT9=
EXTT10=
EXTT11=
EXTT12=
EXTT13=
EXTT14=
EXTT15=
PLAYORDER=
